<?xml version="1.0" encoding="utf-8"?>
<svg xmlns="http://www.w3.org/2000/svg" viewBox="0 0 500 500">
  <path d="M 257.193 86.366 C 257.83 86.366 257.83 86.366 258.478 86.366 C 267.688 86.41 276.611 87.157 285.715 88.531 C 286.259 88.608 286.805 88.685 287.366 88.773 C 290.158 89.224 292.767 89.806 295.43 90.741 C 296.741 91.18 298.06 91.543 299.398 91.906 C 310.358 94.852 320.912 98.754 330.921 104.052 C 331.308 104.25 331.695 104.448 332.092 104.668 C 361.923 120.32 361.923 120.32 367.324 130.894 C 367.713 132.939 367.771 134.797 366.668 136.632 C 364.146 139.688 361.419 142.469 358.553 145.217 C 358.113 145.646 357.674 146.074 357.221 146.503 C 356.018 147.668 354.812 148.833 353.607 149.998 C 351.972 151.581 350.363 153.186 348.763 154.802 C 347.938 155.626 347.112 156.462 346.286 157.286 C 345.876 157.704 345.466 158.122 345.044 158.55 C 342.141 161.441 339.995 163.354 335.702 163.475 C 332.929 162.991 331.279 161.155 329.338 159.287 C 319.098 149.878 306.739 143.096 293.476 138.655 C 292.53 138.336 291.59 137.995 290.667 137.622 C 287.894 136.588 284.951 136.116 282.055 135.511 C 281.411 135.368 280.768 135.225 280.103 135.082 C 253.323 129.465 224.828 134.61 201.543 148.427 C 196.963 151.329 192.253 154.681 188.329 158.418 C 187.422 159.287 188.365 158.913 186.946 159.638 C 186.946 159.957 186.54 160.045 186.367 160.32 C 185.629 161.012 185.629 161.012 184.587 161.837 C 166.384 177.116 156.163 201.65 153.752 224.59 C 153.151 232.9 153.348 241.408 154.713 249.63 C 154.784 250.059 154.854 250.498 154.928 250.938 C 158.508 272.13 168.195 291.081 183.41 306.579 C 183.982 307.173 184.55 307.755 185.114 308.349 C 188.61 312.009 192.22 315.273 196.391 318.193 C 196.763 318.456 197.136 318.72 197.519 318.991 C 199.595 320.392 201.195 321.211 203.777 321.388 C 215.34 307.964 222.352 289.08 224.879 271.834 C 225.028 270.899 225.028 270.899 225.181 269.943 C 225.567 266.777 225.526 263.59 225.539 260.402 C 225.55 259.775 225.561 259.138 225.572 258.478 C 225.599 252.191 224.297 246.277 222.241 240.342 C 222.082 239.869 221.923 239.396 221.759 238.913 C 218.881 231.009 214.615 223.37 209.58 216.588 C 209.362 216.291 209.145 215.983 208.92 215.676 C 205.214 210.542 201.106 205.948 196.638 201.43 C 195.229 200.012 193.964 198.517 192.698 196.967 C 191.989 196.33 191.264 195.703 190.522 195.099 C 189.199 194.021 188.393 193.23 187.422 191.812 C 187.25 189.053 187.25 189.053 187.949 187.679 C 191.441 187.888 193.964 189.218 196.984 190.878 C 197.492 191.152 197.998 191.427 198.52 191.702 C 209.878 197.978 220.454 205.486 229.883 214.302 C 230.964 215.302 232.065 216.28 233.168 217.258 C 234.458 218.402 235.736 219.556 237.013 220.721 C 237.438 221.095 237.861 221.479 238.298 221.875 C 246.33 229.35 251.679 239.396 252.008 250.322 C 252.043 255.708 251.37 260.897 250.203 266.151 C 250.068 266.755 249.933 267.371 249.795 267.997 C 244.161 290.553 231.536 312.163 217.494 330.68 C 217.133 331.161 217.133 331.161 216.766 331.65 C 213.012 336.648 209.1 341.499 205.072 346.286 C 204.392 347.097 203.716 347.911 203.039 348.727 C 200.55 351.729 198.002 354.675 195.42 357.599 C 194.274 358.899 193.152 360.199 192.071 361.552 C 190.399 363.538 188.412 364.32 185.84 364.592 C 182.086 364.467 178.89 362.018 175.816 360.107 C 175.301 359.798 174.786 359.49 174.256 359.173 C 159.82 350.423 146.262 338.433 136.249 325.002 C 135.853 324.509 135.46 324.018 135.053 323.511 C 127.984 314.647 122.312 304.414 117.755 294.114 C 117.423 293.367 117.082 292.63 116.73 291.894 C 108.39 274.318 105.529 253.213 105.519 234.01 C 105.519 233.604 105.519 233.197 105.519 232.779 C 105.529 225.733 105.957 218.885 107.228 211.938 C 107.371 211.18 107.371 211.18 107.513 210.399 C 109.168 201.639 111.286 192.889 114.618 184.579 C 114.778 184.184 114.938 183.777 115.102 183.359 C 121.737 166.805 130.44 151.438 142.579 138.116 C 143.038 137.611 143.498 137.105 143.973 136.577 C 149.444 130.653 155.102 124.948 161.571 120.056 C 162.226 119.54 162.881 119.023 163.535 118.517 C 169.274 114.066 175.318 110.262 181.619 106.624 C 182.031 106.382 182.443 106.14 182.868 105.888 C 204.902 92.928 231.564 86.19 257.193 86.366 Z" fill="#57B5E5" style="stroke-width: 1;"/>
  <path d="M 392.874 175.632 C 393.364 175.929 393.626 176.379 394.13 176.676 C 397.05 179.699 398.102 182.766 398.252 186.91 C 398.099 190.911 397.169 193.878 394.416 196.89 C 390.652 200.298 387.421 200.759 382.41 200.639 C 381.732 200.617 381.732 200.617 381.04 200.584 C 380.83 201.133 380.83 201.133 380.614 201.694 C 379.963 203.222 379.2 204.585 378.354 206.014 C 378.031 206.563 377.706 207.102 377.373 207.673 C 376.854 208.542 376.854 208.542 376.324 209.421 C 375.966 210.026 375.608 210.63 375.249 211.235 C 374.53 212.455 373.81 213.664 373.089 214.873 C 371.931 216.83 370.776 218.775 369.622 220.732 C 367.284 224.689 364.931 228.646 362.575 232.592 C 362.883 232.548 363.191 232.515 363.507 232.471 C 366.726 232.065 369.944 231.669 373.163 231.273 C 374.362 231.119 375.561 230.965 376.761 230.823 C 378.489 230.603 380.218 230.383 381.947 230.174 C 382.744 230.075 382.744 230.075 383.559 229.965 C 386.44 229.613 389.216 229.427 392.119 229.493 C 392.202 229.185 392.286 228.888 392.372 228.569 C 393.205 225.81 394.027 224.161 396.34 222.271 C 396.84 221.82 397.341 221.369 397.856 220.908 C 401.142 218.468 403.773 217.775 407.878 217.896 C 412.209 218.533 415.639 221.018 418.301 224.337 C 420.724 227.778 421.229 231.086 420.608 235.175 C 419.092 239.528 416.896 242.76 412.781 244.991 C 409.831 246.277 406.901 246.244 403.725 246.013 C 403.316 245.991 402.906 245.969 402.484 245.948 C 398.67 245.442 396.262 243.002 393.702 240.342 C 393.527 240.001 393.353 239.66 393.174 239.308 C 387.286 239.143 381.589 239.638 375.748 240.287 C 374.795 240.386 373.841 240.484 372.888 240.583 C 370.901 240.803 368.914 241.012 366.928 241.232 C 364.403 241.507 361.878 241.782 359.352 242.045 C 356.914 242.309 354.477 242.573 352.04 242.837 C 351.586 242.881 351.251 242.892 350.783 242.947 C 342.131 243.903 341.598 242.738 333.901 245.057 C 333.548 247.387 333.733 247.838 334.695 249.927 C 335.578 250.729 336.49 251.454 337.449 252.18 C 337.787 252.444 338.125 252.708 338.473 252.982 C 339.465 253.774 340.468 254.543 341.473 255.313 C 342.384 256.027 343.297 256.753 344.209 257.467 C 344.627 257.797 345.044 258.116 345.474 258.445 C 349.044 261.215 352.544 264.073 356.013 266.953 C 358.371 268.921 360.757 270.833 363.183 272.713 C 365.163 274.274 367.115 275.857 369.07 277.44 C 371.756 279.616 374.462 281.748 377.248 283.793 C 385.916 290.278 394.244 298.412 395.811 309.514 C 396.564 320.02 394.413 329.859 387.393 338.086 C 386.185 339.433 384.94 340.738 383.678 342.037 C 383.217 342.522 382.755 343.007 382.281 343.506 C 378.06 347.851 373.358 351.467 368.378 354.944 C 368.033 355.186 367.686 355.427 367.33 355.675 C 355.597 363.735 342.212 370.129 328.283 373.529 C 327.927 373.623 327.571 373.717 327.203 373.814 C 316.475 376.615 304.591 377.389 294.623 371.952 C 276.635 361.525 271.22 338.031 266.342 319.544 C 250.562 258.511 250.562 258.511 264.964 234.384 C 265.964 232.867 267.011 231.438 268.14 230.009 C 268.534 229.514 268.926 229.02 269.331 228.503 C 271.357 226.019 273.463 223.689 275.802 221.479 C 276.665 220.666 276.665 220.666 277.604 219.424 C 278.814 217.995 280.135 216.874 281.579 215.665 C 282.932 214.51 284.242 213.312 285.551 212.114 C 294.591 203.804 304.51 196.736 315.127 190.482 C 315.498 190.262 315.868 190.042 316.25 189.811 C 318.315 188.613 320.029 187.833 322.48 187.679 C 323.007 188.196 323.007 188.196 323.174 189.614 C 322.966 191.713 322.354 192.329 320.865 193.813 C 320.428 194.252 319.992 194.703 319.543 195.165 C 319.12 195.593 318.696 196.022 318.26 196.451 C 306.666 209.003 296.702 222.732 289.771 238.275 C 289.539 238.792 289.308 239.297 289.07 239.836 C 283.373 253.862 283.243 269.569 286.077 284.222 C 286.16 284.661 286.241 285.101 286.325 285.563 C 287.659 292.751 289.263 299.731 292.261 306.447 C 292.95 307.997 293.585 309.558 294.222 311.13 C 296.076 315.438 297.944 319.755 302.432 321.904 C 308.552 324.072 314.408 322.957 320.369 320.871 C 321.951 320.35 323.534 319.836 325.118 319.322 C 325.125 318.674 325.132 318.024 325.14 317.355 C 325.377 307.261 327.782 299.226 334.614 291.443 C 339.261 287.266 344.01 284.112 350.012 282.221 C 350.363 282.111 350.715 281.99 351.076 281.88 C 353.38 281.21 355.429 281.012 357.827 281.122 C 357.827 280.781 357.827 280.44 357.827 280.089 C 357.543 279.968 357.26 279.847 356.967 279.737 C 355.333 278.847 353.987 277.703 352.584 276.505 C 351.969 275.989 351.355 275.472 350.74 274.955 C 350.427 274.692 350.114 274.439 349.792 274.164 C 348.345 272.944 346.887 271.746 345.429 270.537 C 344.858 270.064 344.286 269.591 343.715 269.119 C 343.432 268.888 343.149 268.646 342.857 268.404 C 342 267.701 341.143 266.986 340.286 266.283 C 340.002 266.041 339.719 265.81 339.426 265.568 C 338.858 265.096 338.289 264.623 337.721 264.15 C 336.254 262.941 334.781 261.721 333.297 260.523 C 324.368 253.29 324.368 253.29 323.885 249.135 C 323.835 244.969 324.124 242.089 326.986 238.924 C 330.696 235.461 335.8 235.406 340.681 234.846 C 341.256 234.78 341.831 234.714 342.423 234.637 C 345.471 234.285 347.965 234.01 351.034 234.087 C 351.094 233.713 351.617 233.395 351.678 233.01 C 352.04 231.493 352.571 230.383 353.334 229.02 C 353.607 228.525 353.879 228.042 354.16 227.536 C 354.456 227.008 354.752 226.481 355.057 225.942 C 355.364 225.403 355.669 224.854 355.984 224.293 C 358.651 219.545 361.374 214.829 364.108 210.114 C 365.666 207.432 367.208 204.739 368.742 202.035 C 368.958 201.661 369.173 201.276 369.396 200.88 C 369.941 199.924 370.48 198.968 371.016 198 C 371.239 197.605 371.463 197.209 371.692 196.791 C 372.273 195.483 371.954 194.714 371.544 193.362 C 371.271 192.735 370.999 192.12 370.72 191.482 C 369.53 188.404 369.371 185.316 370.425 182.161 C 372.104 178.6 374.469 175.434 378.204 173.774 C 383.422 172.202 388.356 172.796 392.874 175.632 Z" fill="#56B6E6" style="stroke-width: 1;"/>
  <path d="M 249.179 64.217 C 250.147 64.206 250.147 64.206 251.136 64.206 C 252.498 64.206 253.859 64.206 255.22 64.206 C 257.27 64.206 259.319 64.184 261.367 64.184 C 270.942 64.162 280.24 64.525 289.616 66.514 C 291.115 66.833 292.609 67.086 294.123 67.328 C 308.36 69.878 322.617 74.769 335.669 80.815 C 336.112 81.013 336.555 81.222 337.012 81.431 C 347.745 86.355 357.817 92.488 367.324 99.402 C 367.668 99.644 368.013 99.897 368.368 100.161 C 375.676 105.437 375.676 105.437 377.874 109.207 C 378.155 109.68 378.435 110.153 378.723 110.625 C 380.318 114.275 380.109 118.715 378.802 122.431 C 377.686 124.662 376.607 126.63 374.709 128.311 C 372.585 127.465 371.121 126.003 369.499 124.475 C 366.211 121.43 362.749 118.693 359.159 116.011 C 358.098 115.209 357.058 114.384 356.013 113.571 C 352.716 111.054 349.193 108.855 345.693 106.624 C 345.259 106.349 344.825 106.075 344.378 105.778 C 335.909 100.414 326.783 96.105 317.468 92.335 C 316.53 91.95 316.53 91.95 315.573 91.565 C 312.361 90.29 309.185 89.202 305.82 88.388 C 304.543 88.048 304.543 88.048 303.285 87.542 C 301.647 86.916 300.024 86.542 298.311 86.157 C 297.967 86.08 297.624 86.003 297.271 85.926 C 296.546 85.761 295.82 85.596 295.095 85.443 C 294.009 85.212 292.923 84.97 291.838 84.728 C 273.13 80.573 251.701 79.98 232.793 83.398 C 231.891 83.552 231.891 83.552 230.971 83.717 C 218.014 86.036 205.799 89.543 193.753 94.753 C 193.287 94.951 192.82 95.159 192.34 95.368 C 179.869 100.82 168.404 107.921 157.878 116.44 C 157.446 116.77 157.013 117.099 156.568 117.451 C 142.54 128.377 130.975 141.985 122.09 157.209 C 121.665 157.935 121.235 158.66 120.804 159.375 C 99.557 194.967 95.841 236.692 105.705 276.318 C 106.286 278.473 106.998 280.572 107.754 282.672 C 107.952 283.21 108.149 283.738 108.346 284.288 C 115.493 303.809 125.015 321.315 139.353 336.704 C 140.35 337.779 141.318 338.87 142.283 339.973 C 145.77 343.883 149.586 347.491 153.658 350.814 C 153.956 351.058 154.254 351.302 154.561 351.555 C 159.016 355.196 163.491 358.652 168.43 361.656 C 168.744 361.849 169.06 362.044 169.384 362.244 C 179.05 368.19 186.994 370.199 198.501 367.85 C 197.595 372.849 195.708 377.891 191.643 381.273 C 189.945 382.292 188.201 383.097 186.367 383.854 C 185.6 384.189 185.6 384.189 184.817 384.532 C 176.199 386.425 167.969 382.278 160.804 377.981 C 157.152 375.702 153.622 373.249 150.095 370.792 C 148.012 369.342 145.901 367.98 143.733 366.657 C 140.532 364.594 138.17 361.932 135.72 359.074 C 135.096 358.363 134.47 357.652 133.841 356.945 C 133.553 356.618 133.263 356.293 132.965 355.956 C 131.899 354.804 130.783 353.713 129.653 352.621 C 127.518 350.548 125.52 348.421 123.586 346.168 C 123.244 345.779 123.244 345.779 122.896 345.381 C 110.627 331.388 100.828 314.834 94.044 297.643 C 93.902 297.28 93.748 296.906 93.606 296.533 C 91.677 291.619 89.956 286.783 88.773 281.638 C 88.619 281.067 88.466 280.495 88.301 279.913 C 86.471 273.164 85.211 266.316 84.016 259.435 C 83.929 258.94 83.841 258.445 83.753 257.929 C 80.498 239.341 81.956 219.435 85.814 201.078 C 86.077 199.792 86.329 198.506 86.57 197.209 C 90.943 174.522 102.329 151.12 116.728 132.961 C 117.175 132.378 117.622 131.807 118.069 131.235 C 120.89 127.641 123.854 124.222 127.022 120.914 C 128.116 119.76 129.172 118.605 130.214 117.407 C 133.718 113.472 137.519 109.977 141.687 106.734 C 143.017 105.668 144.263 104.558 145.514 103.403 C 154.581 95.346 165.559 88.993 176.343 83.398 C 176.693 83.211 177.043 83.035 177.403 82.848 C 194.046 74.297 211.762 68.856 230.255 65.789 C 230.781 65.69 231.307 65.602 231.849 65.514 C 232.622 65.382 232.622 65.382 233.409 65.261 C 233.863 65.184 234.315 65.118 234.782 65.041 C 239.586 64.415 244.335 64.217 249.179 64.217 Z" fill="#56B6E5" style="stroke-width: 1;"/>
  <path d="M 390.179 263.809 C 391.403 264.711 392.548 265.678 393.702 266.667 C 394.277 267.129 394.853 267.58 395.43 268.041 C 407.59 277.769 417.201 291.74 418.936 307.316 C 419.547 315.264 419.482 323.077 416.915 330.68 C 416.802 331.024 416.688 331.368 416.572 331.723 C 413.935 339.581 410.075 346.43 404.78 352.879 C 404.419 353.338 404.057 353.798 403.685 354.27 C 398.639 360.542 392.803 365.991 386.258 370.737 C 385.213 371.499 384.181 372.275 383.148 373.053 C 361.393 389.184 330.899 401.193 303.126 398.153 C 296.421 397.18 290.17 395.48 285.779 390.091 C 283.08 386.256 282.31 383.029 282.318 378.369 C 282.317 377.692 282.316 377.014 282.314 376.316 C 282.384 374.561 282.384 374.561 282.912 373.013 C 285.294 373.73 287.443 374.67 289.672 375.755 C 304.953 382.965 321.558 381.639 337.339 376.449 C 339.447 375.712 341.514 374.885 343.582 374.045 C 344.006 373.878 344.431 373.71 344.868 373.537 C 358.224 368.249 370.257 361.233 381.04 351.846 C 381.433 351.519 381.825 351.191 382.229 350.854 C 391.531 343.088 398.962 333.447 401.087 321.388 C 401.218 319.141 401.21 316.894 401.22 314.647 C 401.231 314.043 401.241 313.438 401.253 312.823 C 401.278 307.25 400.379 302.193 397.559 297.313 C 397.375 296.994 397.192 296.665 397.003 296.335 C 395.316 293.422 393.356 290.839 391.064 288.344 C 390.75 287.992 390.437 287.64 390.114 287.277 C 387.039 284.024 383.401 281.507 379.773 278.89 C 376.006 276.164 372.442 273.285 368.906 270.284 C 367.854 269.415 366.799 268.558 365.74 267.701 C 366.022 265.711 366.811 264.997 368.412 263.798 C 375.245 258.896 383.048 259.402 390.179 263.809 Z" fill="#56B6E6" style="stroke-width: 1;"/>
  <path d="M 371.377 299.566 C 376.017 302.941 378.933 307.008 379.985 312.614 C 380.702 317.912 378.955 322.43 375.83 326.744 C 373.803 329.194 371.643 331.622 368.378 332.229 C 367.872 331.251 367.366 330.271 366.861 329.293 C 366.579 328.748 366.299 328.203 366.008 327.641 C 365.326 326.262 364.717 324.884 364.157 323.453 C 364.539 323.153 364.539 323.153 364.929 322.847 C 365.262 322.579 365.595 322.31 365.938 322.033 C 366.268 321.77 366.599 321.506 366.94 321.235 C 368.8 319.439 369.08 317.803 369.137 315.289 C 369.089 312.735 368.78 311.108 367.041 309.173 C 364.403 306.821 361.763 306.634 358.312 306.711 C 355.903 307.052 354.83 307.876 353.079 309.514 C 351.263 312.229 351.549 315.716 352.023 318.807 C 353.186 320.828 354.637 322.409 356.772 323.453 C 355.893 326.635 354.199 329.381 352.551 332.229 C 347.934 330.545 344.758 327.764 342.527 323.453 C 340.355 318.109 340.107 312.592 342.358 307.239 C 344.498 303.117 347.367 300.369 351.496 298.159 C 351.807 297.984 352.12 297.808 352.44 297.621 C 358.279 294.906 366.162 296.28 371.377 299.566 Z" style="stroke-width: 1; fill: rgb(255, 255, 255);"/>
  <path d="M 366.795 99.402 C 369.574 101.161 372.214 102.953 374.709 105.085 C 373.327 105.987 372.579 106.316 371.016 106.624 C 370.841 106.283 370.668 105.943 370.489 105.591 C 370.837 105.591 371.185 105.591 371.544 105.591 C 371.544 105.25 371.544 104.909 371.544 104.569 C 369.628 104.228 367.714 103.887 365.74 103.535 C 365.567 103.019 365.393 102.513 365.213 101.986 C 366.083 101.986 366.954 101.986 367.851 101.986 C 367.851 101.645 367.851 101.304 367.851 100.952 C 367.502 100.952 367.155 100.952 366.795 100.952 C 366.795 100.436 366.795 99.93 366.795 99.402 Z" fill="#5AB3DC" style="stroke-width: 1;"/>
  <path d="M 235.959 298.676 C 236.307 298.676 236.655 298.676 237.013 298.676 C 236.218 301.358 234.991 303.644 233.584 306.063 C 233.372 306.436 233.159 306.81 232.94 307.206 C 231.343 309.965 231.343 309.965 230.155 310.547 C 230.449 308.822 230.868 307.437 231.738 305.898 C 232.086 305.898 232.435 305.898 232.793 305.898 C 232.924 305.568 233.054 305.238 233.189 304.898 C 234.063 302.798 235.011 300.743 235.959 298.676 Z" fill="#64B2DD" style="stroke-width: 1;"/>
  <path d="M 353.607 362.171 C 353.607 362.682 353.607 363.193 353.607 363.72 C 352.223 364.411 350.837 365.099 349.452 365.785 C 348.861 366.08 348.861 366.08 348.259 366.382 C 347.882 366.568 347.504 366.755 347.114 366.947 C 346.766 367.12 346.419 367.292 346.06 367.472 C 345.165 367.85 345.165 367.85 344.111 367.85 C 344.638 366.301 344.638 366.301 345.521 365.747 C 345.894 365.582 346.267 365.417 346.651 365.247 C 347.054 365.065 347.457 364.884 347.872 364.697 C 348.295 364.514 348.719 364.329 349.155 364.14 C 349.58 363.95 350.006 363.76 350.444 363.564 C 351.496 363.095 352.55 362.631 353.607 362.171 Z" fill="#62B7E2" style="stroke-width: 1;"/>
  <path d="M 147.855 123.145 C 148.203 123.321 148.55 123.486 148.91 123.662 C 147.88 124.706 146.846 125.728 145.811 126.761 C 145.517 127.058 145.224 127.355 144.922 127.652 C 144.161 128.41 143.372 129.136 142.579 129.861 C 142.23 129.861 141.883 129.861 141.523 129.861 C 142.363 127.718 143.953 126.124 145.745 124.695 C 146.092 124.695 146.441 124.695 146.799 124.695 C 146.799 124.354 146.799 124.013 146.799 123.662 C 147.148 123.497 147.496 123.321 147.855 123.145 Z" fill="#60B9E8" style="stroke-width: 1;"/>
  <path d="M 366.795 222.271 C 367.144 222.271 367.492 222.271 367.851 222.271 C 367.105 224.755 366.041 226.766 364.686 228.976 C 364.337 228.635 363.989 228.294 363.63 227.943 C 363.804 227.437 363.979 226.92 364.157 226.393 C 364.506 226.393 364.854 226.393 365.213 226.393 C 365.279 226.096 365.343 225.799 365.411 225.491 C 365.743 224.326 366.209 223.337 366.795 222.271 Z" fill="#66B0DA" style="stroke-width: 1;"/>
  <path d="M 369.433 217.621 C 369.782 217.797 370.13 217.962 370.489 218.138 C 369.83 219.929 369.077 221.314 367.851 222.787 C 367.324 222.271 367.324 222.271 367.158 221.073 C 367.37 219.292 368.061 218.753 369.433 217.621 Z" fill="#59B1DD" style="stroke-width: 1;"/>
  <path d="M 382.095 287.827 C 382.691 288.311 383.284 288.794 383.875 289.289 C 384.205 289.553 384.536 289.827 384.877 290.102 C 385.788 290.927 385.788 290.927 386.843 292.477 C 385.973 292.312 385.102 292.136 384.205 291.96 C 384.205 291.619 384.205 291.278 384.205 290.927 C 383.857 290.927 383.509 290.927 383.15 290.927 C 383.15 290.586 383.15 290.245 383.15 289.893 C 382.801 289.893 382.454 289.893 382.095 289.893 C 381.921 289.388 381.747 288.871 381.567 288.344 C 381.742 288.179 381.916 288.003 382.095 287.827 Z" fill="#5FB2D9" style="stroke-width: 1;"/>
  <path d="M 387.37 283.705 C 387.893 283.705 388.415 283.705 388.953 283.705 C 388.953 284.046 388.953 284.386 388.953 284.738 C 389.301 284.738 389.65 284.738 390.008 284.738 C 390.008 285.079 390.008 285.42 390.008 285.771 C 390.357 285.771 390.705 285.771 391.064 285.771 C 391.238 286.618 391.412 287.464 391.591 288.344 C 390.984 287.871 390.38 287.387 389.778 286.893 C 389.273 286.486 389.273 286.486 388.758 286.079 C 387.899 285.255 387.899 285.255 387.37 283.705 Z" fill="#60B2DF" style="stroke-width: 1;"/>
  <path d="M 188.478 313.13 C 190.788 313.383 192.073 314.768 193.753 316.226 C 193.231 316.395 192.708 316.565 192.17 316.741 C 191.208 316.263 191.208 316.263 190.226 315.548 C 189.732 315.199 189.732 315.199 189.229 314.845 C 188.981 314.614 188.733 314.395 188.478 314.164 C 188.478 313.823 188.478 313.482 188.478 313.13 Z" fill="#64B4DD" style="stroke-width: 1;"/>
  <path d="M 285.022 248.597 C 285.37 248.597 285.719 248.597 286.077 248.597 C 285.729 250.641 285.381 252.686 285.022 254.796 C 283.968 253.246 283.968 253.246 284.132 251.4 C 284.495 249.63 284.495 249.63 285.022 248.597 Z" fill="#5AABD8" style="stroke-width: 1;"/>
  <path d="M 282.384 359.074 C 282.907 359.074 283.43 359.074 283.968 359.074 C 285.089 361.461 285.089 361.461 284.495 363.204 C 282.384 360.816 282.384 360.816 282.384 359.074 Z" fill="#62B5E2" style="stroke-width: 1;"/>
  <path d="M 405.836 349.266 C 406.01 349.777 406.183 350.288 406.363 350.814 C 405.622 351.983 404.676 352.89 403.725 353.912 C 403.378 353.571 403.029 353.23 402.67 352.879 C 403.192 352.708 403.715 352.538 404.253 352.363 C 404.863 351.087 404.863 351.087 405.308 349.781 C 405.482 349.611 405.656 349.44 405.836 349.266 Z" fill="#5CBCE1" style="stroke-width: 1;"/>
  <path d="M 389.481 199.55 C 387.559 200.803 386.467 200.672 384.205 200.584 C 384.205 200.243 384.205 199.902 384.205 199.55 C 386.137 199.166 387.594 198.913 389.481 199.55 Z" fill="#62B3DD" style="stroke-width: 1;"/>
  <path d="M 284.495 214.005 C 284.843 214.181 285.191 214.346 285.55 214.521 C 283.231 216.588 283.231 216.588 282.384 217.105 C 281.862 216.94 281.34 216.764 280.802 216.588 C 282.049 215.291 282.736 214.576 284.495 214.005 Z" fill="#63B6DD" style="stroke-width: 1;"/>
  <path d="M 364.686 136.566 C 365.033 136.907 365.382 137.248 365.74 137.6 C 364.87 138.457 364 139.303 363.103 140.183 C 362.929 139.336 362.755 138.479 362.575 137.6 C 363.272 137.775 363.968 137.94 364.686 138.116 C 364.686 137.611 364.686 137.094 364.686 136.566 Z" fill="#53B2DC" style="stroke-width: 1;"/>
  <path d="M 357.827 221.754 C 358.175 221.754 358.523 221.754 358.882 221.754 C 358.882 222.436 358.882 223.117 358.882 223.821 C 358.534 223.821 358.186 223.821 357.827 223.821 C 357.479 224.502 357.13 225.184 356.772 225.876 C 357.233 222.337 357.233 222.337 357.827 221.754 Z" fill="#5EBCE1" style="stroke-width: 1;"/>
  <path d="M 183.202 106.624 C 183.028 107.141 182.853 107.646 182.675 108.174 C 181.059 108.79 181.059 108.79 179.508 109.207 C 180.444 107.185 180.817 106.624 183.202 106.624 Z" fill="#58B4E1" style="stroke-width: 1;"/>
  <path d="M 298.739 372.496 C 300.224 372.4 300.224 372.4 301.905 372.496 C 302.427 373.007 302.949 373.518 303.487 374.045 C 301.92 373.874 300.353 373.704 298.739 373.529 C 298.739 373.188 298.739 372.848 298.739 372.496 Z" fill="#63BBE8" style="stroke-width: 1;"/>
  <path d="M 152.075 350.298 C 153.743 351.004 154.181 351.324 155.24 352.879 C 154.544 352.879 153.848 352.879 153.13 352.879 C 153.13 352.538 153.13 352.197 153.13 351.846 C 152.608 351.676 152.086 351.506 151.548 351.33 C 151.722 350.989 151.895 350.648 152.075 350.298 Z" fill="#61BCE7" style="stroke-width: 1;"/>
  <ellipse style="stroke: rgb(0, 0, 0); fill: rgb(86, 182, 230); stroke-width: 1;" cx="256.266" cy="187.097" rx="26.972" ry="25.82"/>
  <ellipse style="stroke: rgb(0, 0, 0); fill: rgb(86, 182, 230); stroke-width: 1;" cx="360.118" cy="315.419" rx="10.388" ry="9.796"/>
</svg>